<?xml version="1.0" encoding="UTF-8"?>
<svg width="22px" height="22px" viewBox="0 0 22 22" version="1.1" xmlns="http://www.w3.org/2000/svg" xmlns:xlink="http://www.w3.org/1999/xlink">
    <!-- Generator: Sketch 51 (57462) - http://www.bohemiancoding.com/sketch -->
    <title>Shape</title>
    <desc>Created with Sketch.</desc>
    <defs></defs>
    <g id="Page-1" stroke="none" stroke-width="1" fill="none" fill-rule="evenodd">
        <g id="homepage" transform="translate(-101.000000, -264.000000)" fill="#999999" fill-rule="nonzero">
            <g id="hero" transform="translate(84.000000, 168.000000)">
                <g id="search" transform="translate(3.000000, 81.000000)">
                    <path d="M29.7232704,28.836478 L28.7295597,28.836478 L28.3773585,28.4968553 C29.6100629,27.0628931 30.3522013,25.2012579 30.3522013,23.1761006 C30.3522013,18.6603774 26.6918239,15 22.1761006,15 C17.6603774,15 14,18.6603774 14,23.1761006 C14,27.6918239 17.6603774,31.3522013 22.1761006,31.3522013 C24.2012579,31.3522013 26.0628931,30.6100629 27.4968553,29.3773585 L27.836478,29.7295597 L27.836478,30.7232704 L34.1257862,37 L36,35.1257862 L29.7232704,28.836478 Z M22.1761006,28.836478 C19.0440252,28.836478 16.5157233,26.3081761 16.5157233,23.1761006 C16.5157233,20.0440252 19.0440252,17.5157233 22.1761006,17.5157233 C25.3081761,17.5157233 27.836478,20.0440252 27.836478,23.1761006 C27.836478,26.3081761 25.3081761,28.836478 22.1761006,28.836478 Z" id="Shape"></path>
                </g>
            </g>
        </g>
    </g>
</svg>